<svg xmlns="http://www.w3.org/2000/svg" xmlns:xlink="http://www.w3.org/1999/xlink" version="1.1" x="0px" y="0px" viewBox="0 0 100 100" enable-background="new 0 0 100 100" xml:space="preserve"><g><g><g><g><g><g><path d="M55.9,80.4c1.1,1.7,2.4,3.3,4.1,4.4c2.4,1.7,5.2,2.7,8.4,2.7c6.8,0,12.4-4.6,14.1-10.8c0.4-1.2,0.5-2.4,0.5-3.8        c0-0.5,0-0.9-0.1-1.3c-0.5-6.2-5-11.5-11-12.9c-1.1-0.2-2.3-0.5-3.5-0.5c-0.5,0-1,0-1.6,0.1c-0.2,0-0.5,0-0.7,0.1        c-6.9,1.1-12.4,7.2-12.4,14.5C53.7,75.5,54.6,78.2,55.9,80.4z M50.5,80.7c-1.1-2.4-1.7-5.1-1.7-7.9c0-8.9,6-16.3,14-18.8        c0.5-0.1,1.1-0.2,1.6-0.4c-2-3.2-4.3-5.7-6.8-7.4c-1.3-1-2.6-1.7-3.9-2.2c-1.6-0.6-3-1-4.5-1c-1.2,0-2.6,0.2-3.9,0.7        c-1.3,0.5-2.7,1.1-4,2.1c-6.2,4.1-11.9,13-11.9,25.2c0,1.1,0.2,2.1,0.6,2.9c0.4,1,1,1.7,1.7,2.4c0.9,0.7,2,1.5,3.3,2        C39,80.1,44.8,80.8,50.5,80.7z M91.4,65.2c0,3.2-1.3,5.9-3.4,8c0,0,0,0.1-0.1,0.1c-0.4,10.5-8.9,18.9-19.5,18.9        c-5.9,0-11.1-2.6-14.6-6.6c-9.6,0.9-20.5-0.9-25.4-5.7c-0.5-0.5-0.9-1-1.3-1.5c-6.3-0.4-12.3-2.1-15.5-5.2        c-2.2-2.2-3.4-4.9-3.4-8c0-6.6,2.2-13.9,5.9-19.5c1.8-2.8,3.9-5,6.2-6.7c0.4-0.4,0.5-0.9,0.6-1.3c0.1-0.7-0.1-1.6-0.6-2.2        c-2.2-2.4-3.7-5.7-3.7-9.4c0-7.7,6.2-13.9,13.9-13.9c3.5,0,6.7,1.3,9.1,3.5c2.7-2.2,6-3.4,9.6-3.4c3.9,0,7.4,1.5,10.1,3.8        c2.4-2.4,5.9-3.9,9.6-3.9c7.7,0,13.9,6.2,13.9,13.9c0,3.5-1.3,6.8-3.7,9.4c-0.5,0.7-0.6,1.5-0.6,2.2c0.1,0.5,0.2,1,0.6,1.3        c2.3,1.7,4.4,3.9,6.2,6.7C89.2,51.3,91.4,58.7,91.4,65.2z M86.8,66.6c0.1-0.5,0.1-0.9,0.1-1.3C87,49.6,76.5,40,69.1,40        c-2.3,0-5,1-7.6,2.7c2.2,1.7,4.3,4,6,6.7c0.9,1.2,1.6,2.4,2.2,3.9C77.7,53.9,84.4,59.3,86.8,66.6z M76.7,31.6        c1.1-1.6,1.7-3.4,1.7-5.5c0-5.2-4.3-9.5-9.5-9.5c-2.7,0-5,1.1-6.7,2.8c1.5,2.4,2.4,5.2,2.4,8.2c0,2.2-0.5,4.1-1.2,6.1        c1.6,1.2,3.5,1.8,5.6,1.8c2.7,0,5.1-1.1,6.8-2.9C76.1,32.3,76.4,32,76.7,31.6z M59.5,27.3c0-5.7-4.6-10.4-10.4-10.4        s-10.4,4.6-10.4,10.4s4.6,10.4,10.4,10.4S59.5,33.1,59.5,27.3z M34,27.7c0-3.3,1-6.2,2.7-8.7c-1.7-1.5-3.8-2.3-6.2-2.3        c-5.2,0-9.5,4.3-9.5,9.5c0,2.1,0.6,3.9,1.8,5.5c0.4,0.4,0.6,0.7,0.9,1.1c1.7,1.8,4.1,2.9,6.8,2.9c1.8,0,3.5-0.5,4.9-1.5        C34.4,32.2,34,30,34,27.7z M31.2,49.4c1.8-2.9,4-5.2,6.5-7.1c-2.3-1.6-4.9-2.4-7.1-2.4c-7.4,0-17.9,9.6-17.9,25.2        c0,2,0.6,3.5,2.1,4.9c2,1.8,5.9,3,10.2,3.5c-0.2-0.9-0.2-1.7-0.2-2.7C24.6,63.7,27,55.6,31.2,49.4z"></path></g></g></g></g></g></g><g><g><g><path d="M65,80l-4.3-4.1c-0.7-0.6-0.9-1.5-0.5-2.4c0.6-1.4,2.6-1.9,3.6-0.8c0.9,0.8,1.7,1.6,2.6,2.5c2.5-2.8,5-5.5,7.4-8.3     c1.1-1.2,3-0.8,3.7,0.6c0.4,0.8,0.2,1.7-0.4,2.4c-2.1,2.4-4.2,4.8-6.4,7.1l-2.5,2.8c-0.4,0.5-1,0.7-1.7,0.7     C66,80.6,65.4,80.4,65,80z"></path></g></g></g></svg>